<?xml version="1.0" encoding="UTF-8" standalone="no"?>
<!DOCTYPE svg PUBLIC "-//W3C//DTD SVG 1.1//EN" "http://www.w3.org/Graphics/SVG/1.1/DTD/svg11.dtd">
<svg version="1.1" xmlns="http://www.w3.org/2000/svg" xmlns:xlink="http://www.w3.org/1999/xlink" preserveAspectRatio="xMidYMid meet" viewBox="-0.002033865505561394 -0.0029566943297023585 24.000000000000007 24.010000000000005" width="20" height="20.01"><defs><path d="M11 1C5.48 1 1 5.08 1 10.12C1 15.16 5.48 19.25 11 19.25C12.34 19.25 13.62 19.01 14.79 18.58C15.03 18.74 16.27 19.54 18.49 21.01C18.43 20.58 17.97 17.15 17.91 16.72C19.98 14.04 21 11.85 21 10.12C21 5.08 16.52 1 11 1Z" id="eCAZaIC4y"></path><path d="M11 1C5.48 1 1 5.08 1 10.12C1 15.16 5.48 19.25 11 19.25C12.34 19.25 13.62 19.01 14.79 18.58C15.03 18.74 16.27 19.54 18.49 21.01C18.43 20.58 17.97 17.15 17.91 16.72C19.98 14.04 21 11.85 21 10.12C21 5.08 16.52 1 11 1Z" id="d2wCt0Gb38"></path></defs><g><g><use xlink:href="#eCAZaIC4y" opacity="1" fill="#ffffff" fill-opacity="0"></use><g><use xlink:href="#eCAZaIC4y" opacity="1" fill-opacity="0" stroke="#000000" stroke-width="1" stroke-opacity="0"></use></g></g><g><use xlink:href="#d2wCt0Gb38" opacity="1" fill="#000000" fill-opacity="0"></use><g><use xlink:href="#d2wCt0Gb38" opacity="1" fill-opacity="0" stroke="#030008" stroke-width="1" stroke-opacity="1"></use></g></g></g></svg>